<svg width="314" height="314" viewBox="0 0 314 314" fill="none" xmlns="http://www.w3.org/2000/svg">
<g clip-path="url(#clip0_75_773)">
<path d="M65.7579 125.204C66.4853 103.588 83.7622 86.386 105.696 86.5626L133.627 86.5291L133.928 72.0128C132.826 71.3767 133.462 70.2749 133.78 69.7241C135.371 66.9696 138.846 66.0383 141.601 67.6286L181.265 90.5285C182.917 91.4826 184.252 92.9877 184.399 95.2765C184.632 96.1454 183.996 97.2472 183.678 97.7981C183.042 98.8998 182.724 99.4507 181.855 99.6835L141.986 122.939C139.93 123.956 138.51 123.871 136.306 122.599C134.654 121.644 133.637 119.588 133.172 117.851L133.41 99.6256L105.48 99.6591C100.351 99.6362 95.1375 101.033 90.7076 103.617C78.2868 111.136 74.7425 127.453 82.2616 139.874C84.0619 143.117 82.7045 146.74 80.0124 148.858C76.7695 150.659 73.1461 149.301 71.0278 146.609C67.7453 139.572 65.3318 132.303 65.7579 125.204Z" fill="white"/>
<path d="M128.658 245.254L109.002 211.871L94.5255 220.407C92.4696 221.423 91.0497 221.338 88.8462 220.066C87.1935 219.111 86.177 217.056 85.7113 215.318L85.5988 169.713C85.366 168.844 86.0021 167.742 86.3201 167.191C87.9104 164.437 91.3862 163.505 94.1406 165.096L133.804 187.996C135.457 188.95 136.474 191.006 136.939 192.744C137.172 193.612 136.536 194.714 136.218 195.265C135.582 196.367 134.713 196.6 134.395 197.151L120.236 205.135L139.891 238.519C144.276 246.192 153.09 251.281 161.927 251.241C170.764 251.202 178.437 246.817 182.571 239.656L185.434 234.698C187.342 231.392 190.818 230.461 194.123 232.369C197.429 234.278 198.36 237.754 196.452 241.059L193.589 246.017C186.91 257.585 174.807 264.554 161.16 264.02C148.614 264.121 135.944 256.806 128.658 245.254Z" fill="white"/>
<path d="M202.268 210.629L202.155 165.024C201.923 164.155 202.559 163.054 202.877 162.503C204.467 159.748 207.943 158.817 210.697 160.407L225.02 168.677L240.605 141.683C245.376 133.42 245.421 123.163 240.486 115.172C235.318 106.312 225.953 100.905 215.696 100.86C211.988 100.922 209.319 97.912 209.256 94.2034C209.194 90.4948 212.204 87.8256 215.912 87.7632C230.747 87.5137 244.519 95.465 251.72 108.437C258.688 120.54 258.938 135.374 251.623 148.044L236.356 174.487L250.679 182.756C252.332 183.71 253.348 185.766 253.814 187.504C254.047 188.373 253.411 189.475 253.093 190.026C252.775 190.577 252.138 191.678 251.269 191.911L211.4 215.167C209.344 216.184 207.924 216.099 205.721 214.826C203.199 214.105 202.183 212.049 202.268 210.629Z" fill="white"/>
</g>
<defs>
<clipPath id="clip0_75_773">
<rect width="228.999" height="228.999" fill="white" transform="matrix(-0.5 0.866025 0.866025 0.5 114.834 0.759766)"/>
</clipPath>
</defs>
</svg>
